<svg width="196" height="40" viewBox="0 0 196 40" fill="none" xmlns="http://www.w3.org/2000/svg">
<path fill-rule="evenodd" clip-rule="evenodd" d="M15.785 0.55H0V39.05H10.01V26.18H14.685L22.055 39.05H32.945L24.86 25.19V24.31C28.93 21.7433 30.965 18.1317 30.965 13.475C30.965 9.36833 29.5717 6.19667 26.785 3.96C24.035 1.68667 20.3683 0.55 15.785 0.55ZM19.47 16.775C18.48 17.4717 17.1783 17.82 15.565 17.82H10.01V8.91H15.565C17.1783 8.91 18.48 9.27667 19.47 10.01C20.46 10.7067 20.955 11.825 20.955 13.365C20.955 14.905 20.46 16.0417 19.47 16.775ZM59.1473 0.55H50.3473L35.2773 39.05H45.7273L47.8723 33.055H61.6223L63.7673 39.05H74.2174L59.1473 0.55ZM55.4623 15.73L58.6523 24.695H50.8423L54.0323 15.73L54.5273 11.495H54.9673L55.4623 15.73ZM83.3156 23L76.9854 30.8V39.05H107.455V30.69H88.0954L94.3504 23H107V15H100.858L106.795 7.7V0.55H77.9754V8.91H94.7504L89.808 15H77V23H83.3156ZM118.742 37.125C121.786 38.775 125.214 39.6 129.027 39.6C132.841 39.6 136.269 38.775 139.312 37.125C142.356 35.4383 144.739 33.11 146.462 30.14C148.186 27.1333 149.047 23.6867 149.047 19.8C149.047 15.9133 148.186 12.485 146.462 9.515C144.739 6.50834 142.356 4.18 139.312 2.53C136.269 0.843334 132.841 0 129.027 0C125.214 0 121.786 0.843334 118.742 2.53C115.699 4.18 113.316 6.50834 111.592 9.515C109.869 12.485 109.007 15.9133 109.007 19.8C109.007 23.6867 109.869 27.1333 111.592 30.14C113.316 33.11 115.699 35.4383 118.742 37.125ZM136.287 27.775C134.454 29.7917 132.034 30.8 129.027 30.8C126.021 30.8 123.601 29.7917 121.767 27.775C119.934 25.7217 119.017 23.0633 119.017 19.8C119.017 16.5367 119.934 13.8967 121.767 11.88C123.601 9.82667 126.021 8.8 129.027 8.8C132.034 8.8 134.454 9.82667 136.287 11.88C138.121 13.8967 139.037 16.5367 139.037 19.8C139.037 23.0633 138.121 25.7217 136.287 27.775ZM164.36 0.55H155.01V39.05H164.25V18.7H164.8L165.735 25.795L171.29 39.05H179.21L184.765 25.795L185.7 18.7H186.25V39.05H195.49V0.55H186.14L175.25 26.84L164.36 0.55Z" fill="white"/>
</svg>
